<?xml version="1.0" encoding="utf-8"?>
<!-- Generator: Adobe Illustrator 25.4.1, SVG Export Plug-In . SVG Version: 6.00 Build 0)  -->
<svg version="1.1" id="Layer_1" xmlns="http://www.w3.org/2000/svg" xmlns:xlink="http://www.w3.org/1999/xlink" x="0px" y="0px"
	 viewBox="0 0 1366 768" style="enable-background:new 0 0 1366 768;" xml:space="preserve">
<style type="text/css">
	.st0{fill:none;}
	.st1{fill:#007B56;}
	.st2{font-family:'Georgia-Bold';}
	.st3{font-size:47px;}
	.st4{font-family:'Georgia';}
	.st5{font-size:19px;}
</style>
<g>
	<defs>
		<polygon id="SVGID_1_" points="515.2,320.3 518.2,317.1 519.6,315 520.8,313 521.7,310.7 523.5,309.6 524.7,308.1 526.9,306.6 
			525.9,310 529.8,306.6 532.1,305.5 537.7,302.7 535.1,305.9 534.1,307.7 534.5,309.4 535.5,309.8 537.7,308 539.1,307.4 
			537.9,309.8 537,311.5 535.3,313.5 533.7,314.9 532.3,316.2 531.1,317.3 531.1,319 532.4,320.3 533.9,321.6 535,321.6 
			537.8,321.6 540.4,321.6 538.7,322.9 542.8,322 537.1,326.9 539.9,327.8 534.6,327.8 531.9,328.9 529,330.1 527.1,331.3 
			525.1,333 523.3,334 521.1,336.7 519.8,339.6 519.4,342 519.2,344.5 522.2,344.5 524.9,342.2 531.8,336.7 534.5,333.4 
			533.9,336.6 536,336.7 539.1,335.3 542.8,333.7 540.7,337.5 538.5,339.8 536.9,342.4 536.2,344.5 538.1,343.5 542.8,342.9 
			531.9,350.1 529,352.1 526.7,353.8 527.3,356.6 528.9,358 531.6,358 534.5,356.3 538.9,352.9 545.2,346.3 545.2,349.4 551,349 
			548,355.1 549.2,356.5 553,355.7 547.6,359.5 534.1,362.5 525.7,365.6 521.4,369.8 521,372.2 522.1,374.8 523.5,377.8 
			526.7,381.2 529.9,384.4 532.3,385.7 534.1,386.5 537.1,387.6 540.8,387.6 540.5,390 537.8,390 533.1,387.9 528.7,385.3 
			525.7,382.5 522.3,378.2 518.6,372.2 515.2,368.4 511.3,366.5 509.4,364.9 503.6,363.8 497.5,363.2 488.8,363.2 491.9,362.1 
			482.9,358.7 490.2,357.5 490.2,354.9 502.4,357.8 505.7,357.5 508.8,353.1 506.8,350.8 503.6,348.9 498.7,347.5 489,346.3 
			484.4,346.3 478.5,346.3 471.8,343.9 476.6,342.6 480.3,340 478.3,336.7 475.4,334.5 470.6,331.5 474.3,331.5 472.2,329.5 
			469,326.1 475.6,329.1 475.5,326.1 481.1,328.2 488.9,331.4 493.5,332.8 496.5,331.7 497.5,329.5 498.1,327.2 496.7,324.6 
			491.5,320.7 484.7,318 479.7,316.2 475.2,313.9 474.4,311.9 478.6,314.3 480.1,313.9 480.8,311.9 480.7,310.4 479.2,307.7 
			476.8,304.9 480.1,306.1 483.5,307.6 482.2,304.9 482.2,302.7 486.5,307 491.3,310.2 494.7,310.7 496.1,307.4 494.3,304.2 
			493.4,302.7 491.7,296.7 494.9,298.2 492.9,293.3 495.3,294.2 498.3,296.5 498.9,294.8 502,297.8 504.2,301.4 506.6,302.5 
			505.7,298.3 508,299.5 509.4,297.8 508.2,292 513.4,298.7 513.4,295.9 515,297.2 514.8,298.7 514,302.3 513.6,304.7 512.8,309.1 
			511.3,314.4 511.3,316.8 512.4,318.6 513.2,319.9 		"/>
	</defs>
	<clipPath id="SVGID_00000152965594014095279630000011200281499587455408_">
		<use xlink:href="#SVGID_1_"  style="overflow:visible;"/>
	</clipPath>
	<g transform="matrix(1 0 0 1 0 0)" style="clip-path:url(#SVGID_00000152965594014095279630000011200281499587455408_);">
		
			<image style="overflow:visible;" width="900" height="900" xlink:href="png-clipart-oak-ridge-national-laboratory-national-renewable-energy-laboratory-united-states-department-of-energy-national-laboratories-oak-ridge-national-laboratory-leaf-branch.png"  transform="matrix(0.1295 0 0 0.1128 453.0506 290.0934)">
		</image>
	</g>
</g>
<rect x="492.8" y="264.5" class="st0" width="225" height="109"/>
<text transform="matrix(1 0 0 1 548.5957 336.7344)" class="st1 st2 st3">OAK </text>
<rect x="532" y="336" class="st0" width="204" height="53"/>
<text transform="matrix(1 0 0 1 549.2715 380.2656)" class="st1 st2 st3">RIDGE</text>
<rect x="538" y="386" class="st0" width="187" height="36"/>
<text transform="matrix(1 0 0 1 543.4868 411.1816)" class="st1 st4 st5">National Laboratory</text>
<g>
	<path class="st1" d="M542.6,388.5c0,0.6,0.5,1.1,1.1,1.1h179.6c0.6,0,1.1-0.5,1.1-1.1s-0.5-1.1-1.1-1.1H543.7
		C543.1,387.4,542.6,387.9,542.6,388.5C542.6,388.5,542.6,387.9,542.6,388.5z"/>
</g>
</svg>
